<svg width="64" height="64" viewBox="0 0 64 64" fill="none" xmlns="http://www.w3.org/2000/svg">
    <g filter="url(#filter0_dd_12_61)">
        <rect x="2" y="1.5" width="60" height="60" rx="16" fill="#0008D0"/>
        <path d="M28.7116 42C28.251 42 27.9016 41.8525 27.6634 41.5574C27.4411 41.2623 27.3299 40.8607 27.3299 40.3525C27.3299 39.9426 27.3458 39.5902 27.3776 39.2951C27.4093 39 27.4728 38.6885 27.5681 38.3607C27.6634 38.0164 27.7825 37.5984 27.9255 37.1066C28.0843 36.5984 28.2828 35.9508 28.521 35.1639C28.6639 34.7049 28.8386 34.1066 29.0451 33.3689C29.2674 32.6148 29.4897 31.7951 29.7121 30.9098C29.9344 30.0082 30.117 29.1066 30.26 28.2049C30.4188 27.2869 30.4982 26.4426 30.4982 25.6721C30.4982 25.1475 30.387 24.6639 30.1647 24.2213C28.6877 25.7295 27.2902 27.6967 25.9721 30.123C24.6698 32.5492 23.5105 35.3689 22.4941 38.582C22.1924 39.3852 21.843 39.9262 21.4459 40.2049C21.0489 40.4672 20.6678 40.5984 20.3025 40.5984C20.1913 40.5984 20.0246 40.5328 19.8022 40.4016C19.5799 40.2541 19.3735 39.9918 19.1829 39.6148C18.9923 39.2377 18.897 38.7049 18.897 38.0164C18.897 37.8525 18.9367 37.6475 19.0161 37.4016C19.0955 37.1393 19.2146 36.8607 19.3735 36.5656C19.5164 35.7131 19.6196 34.8033 19.6831 33.8361C19.7625 32.8525 19.8102 31.877 19.8261 30.9098C19.8578 29.9262 19.8737 29.0082 19.8737 28.1557C19.8737 27.5 19.8261 26.9262 19.7308 26.4344C18.9526 27.4508 18.2141 28.6803 17.5154 30.123C16.8166 31.5656 16.1813 33.0984 15.6096 34.7213C15.0538 36.3443 14.5932 37.9344 14.228 39.4918C14.1327 39.8689 14.0215 40.2213 13.8945 40.5492C13.7674 40.8607 13.5768 41.1148 13.3227 41.3115C13.0845 41.4918 12.7351 41.582 12.2746 41.582C11.7664 41.582 11.3852 41.3689 11.1311 40.9426C10.877 40.5164 10.75 39.9508 10.75 39.2459C10.75 38.7049 10.8612 38.0082 11.0835 37.1557C11.3058 36.2869 11.6076 35.3443 11.9887 34.3279C12.3699 33.2951 12.8066 32.2459 13.2989 31.1803C13.8071 30.0984 14.3391 29.0574 14.895 28.0574C15.4508 27.0574 16.0146 26.1639 16.5863 25.377C17.1739 24.5738 17.7298 23.9426 18.2538 23.4836C18.7938 23.0082 19.2861 22.7705 19.7308 22.7705C19.7467 22.7705 19.7705 22.7705 19.8022 22.7705C20.1516 22.7705 20.4693 22.8033 20.7551 22.8689C21.0569 22.918 21.3189 23.0902 21.5412 23.3852C21.7795 23.6639 21.9859 24.1311 22.1606 24.7869C22.3353 25.4426 22.4862 26.3689 22.6132 27.5656C22.645 27.8607 22.6688 28.2131 22.6847 28.623C22.7006 29.0164 22.7085 29.4262 22.7085 29.8525C23.2326 28.6393 23.8043 27.5 24.4237 26.4344C25.0589 25.3689 25.71 24.4262 26.377 23.6066C27.0599 22.7869 27.7349 22.1475 28.4019 21.6885C29.0689 21.2295 29.6883 21 30.26 21C30.927 21 31.5464 21.1721 32.1181 21.5164C32.6898 21.8443 33.1503 22.4016 33.4997 23.1885C33.8491 23.9754 34.0238 25.0492 34.0238 26.4098C34.0238 27.8525 33.8968 29.2541 33.6427 30.6148C33.3886 31.959 33.0709 33.2295 32.6898 34.4262C32.3086 35.623 31.9275 36.7213 31.5464 37.7213C31.1652 38.7049 30.8476 39.5574 30.5935 40.2787C30.387 40.7869 30.1488 41.2049 29.8788 41.5328C29.6089 41.8443 29.2198 42 28.7116 42Z"
              fill="white"/>
        <path d="M46.323 38.8068C46.0054 38.4812 45.5533 37.9553 44.9669 37.229C44.4049 36.5027 43.7575 35.6637 43.0244 34.712C42.438 35.814 41.8883 36.8157 41.3752 37.7174C40.8865 38.619 40.52 39.3077 40.2756 39.7835C39.9824 40.3345 39.6281 40.8479 39.2128 41.3238C38.8218 41.7746 38.3331 42 37.7467 42C37.3802 42 37.0626 41.8623 36.7938 41.5868C36.5495 41.3113 36.4273 40.9857 36.4273 40.61C36.4273 40.034 36.7083 39.0698 37.2703 37.7174C37.8322 36.3399 38.5164 34.8372 39.3227 33.2093C37.3924 33.1843 35.8653 33.0465 34.7414 32.7961C33.6418 32.5456 32.8477 32.2451 32.3591 31.8945C31.8948 31.5438 31.6627 31.1807 31.6627 30.805C31.6627 30.3041 32.0536 29.8533 32.8355 29.4526C33.6174 29.0268 34.888 28.814 36.6472 28.814C37.4291 28.814 38.1743 28.814 38.8829 28.814C38.0766 27.6369 37.4047 26.585 36.8671 25.6583C36.354 24.7317 36.0974 24.1181 36.0974 23.8175C36.0974 23.1664 36.2318 22.6655 36.5006 22.3148C36.7694 21.9392 37.1237 21.7513 37.5635 21.7513C37.9788 21.7513 38.4064 21.839 38.8462 22.0143C39.2861 22.1896 39.7136 22.6029 40.129 23.254C40.3978 23.6547 40.7521 24.1682 41.1919 24.7943C41.6317 25.4204 42.1204 26.1091 42.6579 26.8605C43.733 24.907 44.5271 23.5546 45.0402 22.8032C45.3334 22.3524 45.6633 21.9392 46.0298 21.5635C46.4207 21.1878 46.885 21 47.4225 21C47.8135 21 48.1067 21.1878 48.3021 21.5635C48.522 21.9141 48.632 22.3148 48.632 22.7657C48.632 23.2165 48.3754 24.0179 47.8623 25.1699C47.3737 26.322 46.7628 27.6118 46.0298 29.0394C47.7646 29.1395 49.1207 29.2773 50.098 29.4526C51.0754 29.6029 51.784 29.7782 52.2238 29.9785C52.6636 30.1538 52.9446 30.3417 53.0667 30.542C53.1889 30.7174 53.25 30.8927 53.25 31.068C53.25 31.2182 53.1889 31.3936 53.0667 31.5939C52.9446 31.7692 52.6758 31.9571 52.2604 32.1574C51.8695 32.3327 51.2464 32.4955 50.3912 32.6458C49.5361 32.7961 48.3632 32.9213 46.8728 33.0215C47.6546 34.2236 48.3144 35.288 48.8519 36.2147C49.3895 37.1413 49.6582 37.7674 49.6582 38.093C49.6582 38.5689 49.5116 38.9821 49.2184 39.3327C48.9252 39.6834 48.5587 39.8587 48.1189 39.8587C47.7524 39.8587 47.4225 39.746 47.1293 39.5206C46.8605 39.2952 46.5918 39.0572 46.323 38.8068Z"
              fill="#EF7300"/>
    </g>
    <defs>
        <filter id="filter0_dd_12_61" x="0" y="0" width="64" height="64" filterUnits="userSpaceOnUse"
                color-interpolation-filters="sRGB">
            <feFlood flood-opacity="0" result="BackgroundImageFix"/>
            <feColorMatrix in="SourceAlpha" type="matrix" values="0 0 0 0 0 0 0 0 0 0 0 0 0 0 0 0 0 0 127 0"
                           result="hardAlpha"/>
            <feMorphology radius="0.5" operator="dilate" in="SourceAlpha" result="effect1_dropShadow_12_61"/>
            <feOffset dy="0.5"/>
            <feGaussianBlur stdDeviation="0.75"/>
            <feColorMatrix type="matrix" values="0 0 0 0 0 0 0 0 0 0 0 0 0 0 0 0 0 0 0.15 0"/>
            <feBlend mode="normal" in2="BackgroundImageFix" result="effect1_dropShadow_12_61"/>
            <feColorMatrix in="SourceAlpha" type="matrix" values="0 0 0 0 0 0 0 0 0 0 0 0 0 0 0 0 0 0 127 0"
                           result="hardAlpha"/>
            <feOffset dy="0.5"/>
            <feGaussianBlur stdDeviation="0.5"/>
            <feColorMatrix type="matrix" values="0 0 0 0 0 0 0 0 0 0 0 0 0 0 0 0 0 0 0.3 0"/>
            <feBlend mode="normal" in2="effect1_dropShadow_12_61" result="effect2_dropShadow_12_61"/>
            <feBlend mode="normal" in="SourceGraphic" in2="effect2_dropShadow_12_61" result="shape"/>
        </filter>
    </defs>
</svg>
