<svg width="36" height="36" viewBox="0 0 36 36" fill="none" xmlns="http://www.w3.org/2000/svg">
    <g clip-path="url(#clip0_32_25710)">
        <path fill-rule="evenodd" clip-rule="evenodd"
              d="M20.07 18.9525L24.3675 23.25L23.25 24.3675L18.9525 20.07C18.15 20.6475 17.1825 21 16.125 21C13.4325 21 11.25 18.8175 11.25 16.125C11.25 13.4325 13.4325 11.25 16.125 11.25C18.8175 11.25 21 13.4325 21 16.125C21 17.1825 20.6475 18.15 20.07 18.9525ZM16.125 12.75C14.2575 12.75 12.75 14.2575 12.75 16.125C12.75 17.9925 14.2575 19.5 16.125 19.5C17.9925 19.5 19.5 17.9925 19.5 16.125C19.5 14.2575 17.9925 12.75 16.125 12.75Z"
              fill="#49454F"/>
    </g>
    <defs>
        <clipPath id="clip0_32_25710">
            <rect x="3" y="3" width="30" height="30" rx="15" fill="white"/>
        </clipPath>
    </defs>
</svg>
