<svg width="247" height="247" viewBox="0 0 247 247" fill="none" xmlns="http://www.w3.org/2000/svg">
<g filter="url(#filter0_dd_3_79519)">
<rect x="18" y="14" width="211" height="211" rx="48" fill="#0008D0"/>
<path d="M109.045 165.656C107.02 165.656 105.484 165.008 104.437 163.711C103.46 162.413 102.971 160.648 102.971 158.414C102.971 156.612 103.041 155.063 103.181 153.766C103.32 152.469 103.599 151.1 104.018 149.658C104.437 148.145 104.961 146.307 105.589 144.146C106.287 141.912 107.16 139.065 108.207 135.606C108.835 133.588 109.603 130.958 110.511 127.715C111.488 124.4 112.465 120.797 113.443 116.906C114.42 112.942 115.223 108.979 115.851 105.015C116.549 100.98 116.898 97.2686 116.898 93.8817C116.898 91.5756 116.41 89.4498 115.432 87.5041C108.94 94.1339 102.797 102.781 97.0023 113.447C91.2778 124.112 86.1816 136.507 81.7137 150.631C80.3873 154.162 78.8514 156.54 77.1062 157.765C75.3609 158.918 73.6854 159.495 72.0798 159.495C71.5911 159.495 70.8581 159.207 69.8807 158.63C68.9034 157.982 67.9958 156.829 67.1581 155.171C66.3204 153.514 65.9015 151.172 65.9015 148.145C65.9015 147.424 66.0761 146.524 66.4251 145.443C66.7742 144.29 67.2977 143.065 67.9958 141.767C68.6241 138.02 69.0779 134.021 69.3572 129.769C69.7062 125.445 69.9156 121.157 69.9855 116.906C70.1251 112.582 70.1949 108.546 70.1949 104.799C70.1949 101.917 69.9855 99.3945 69.5666 97.2326C66.1459 101.7 62.8997 107.105 59.828 113.447C56.7563 119.788 53.9639 126.526 51.4507 133.66C49.0073 140.795 46.9828 147.785 45.3771 154.631C44.9583 156.288 44.4696 157.837 43.9111 159.279C43.3526 160.648 42.5149 161.765 41.3979 162.63C40.3508 163.422 38.8149 163.819 36.7904 163.819C34.5565 163.819 32.881 162.882 31.764 161.008C30.647 159.135 30.0886 156.648 30.0886 153.55C30.0886 151.172 30.5772 148.109 31.5546 144.362C32.5319 140.542 33.8583 136.399 35.5338 131.931C37.2093 127.391 39.1291 122.779 41.2932 118.095C43.5271 113.339 45.8658 108.763 48.3092 104.367C50.7526 99.971 53.2309 96.0435 55.744 92.5845C58.327 89.0534 60.7704 86.279 63.0742 84.2613C65.4478 82.1715 67.6119 81.1265 69.5666 81.1265C69.6364 81.1265 69.7411 81.1265 69.8807 81.1265C71.4166 81.1265 72.8128 81.2707 74.0694 81.5589C75.3958 81.7751 76.5477 82.5318 77.525 83.8289C78.5722 85.054 79.4797 87.1078 80.2477 89.9903C81.0156 92.8728 81.6788 96.9443 82.2373 102.205C82.3769 103.502 82.4816 105.051 82.5514 106.853C82.6212 108.582 82.6561 110.384 82.6561 112.258C84.9599 106.925 87.4731 101.917 90.1957 97.2326C92.9881 92.5485 95.8504 88.4049 98.7824 84.8017C101.784 81.1986 104.751 78.3881 107.683 76.3704C110.615 74.3526 113.338 73.3438 115.851 73.3438C118.783 73.3438 121.506 74.1004 124.019 75.6137C126.532 77.055 128.557 79.5051 130.093 82.9641C131.628 86.4232 132.396 91.1433 132.396 97.1245C132.396 103.466 131.838 109.627 130.721 115.609C129.604 121.518 128.208 127.103 126.532 132.363C124.857 137.624 123.181 142.452 121.506 146.848C119.83 151.172 118.434 154.919 117.317 158.09C116.41 160.324 115.363 162.161 114.176 163.602C112.989 164.972 111.279 165.656 109.045 165.656Z" fill="white"/>
<path d="M186.462 151.619C185.065 150.188 183.078 147.876 180.5 144.684C178.03 141.491 175.184 137.803 171.962 133.619C169.384 138.463 166.967 142.867 164.712 146.83C162.563 150.794 160.952 153.821 159.878 155.913C158.589 158.335 157.032 160.592 155.206 162.684C153.488 164.665 151.339 165.656 148.762 165.656C147.151 165.656 145.754 165.051 144.573 163.84C143.499 162.629 142.962 161.198 142.962 159.546C142.962 157.014 144.197 152.775 146.667 146.83C149.138 140.775 152.145 134.17 155.689 127.014C147.204 126.904 140.491 126.298 135.551 125.197C130.717 124.096 127.227 122.775 125.078 121.234C123.038 119.693 122.017 118.096 122.017 116.445C122.017 114.243 123.736 112.261 127.173 110.5C130.61 108.628 136.195 107.693 143.928 107.693C147.365 107.693 150.641 107.693 153.756 107.693C150.212 102.518 147.258 97.8944 144.895 93.8209C142.639 89.7475 141.512 87.0503 141.512 85.7292C141.512 82.8667 142.102 80.6649 143.284 79.1236C144.465 77.4722 146.023 76.6465 147.956 76.6465C149.782 76.6465 151.662 77.0319 153.595 77.8025C155.528 78.5731 157.408 80.3897 159.234 83.2521C160.415 85.0136 161.973 87.2704 163.906 90.0228C165.839 92.7751 167.988 95.8026 170.35 99.1054C175.076 90.5182 178.567 84.5732 180.823 81.2704C182.112 79.2887 183.562 77.4722 185.173 75.8208C186.891 74.1694 188.932 73.3438 191.295 73.3438C193.013 73.3438 194.302 74.1694 195.162 75.8208C196.128 77.3621 196.612 79.1236 196.612 81.1053C196.612 83.0869 195.484 86.6099 193.228 91.6741C191.08 96.7384 188.395 102.408 185.173 108.683C192.799 109.124 198.76 109.729 203.056 110.5C207.352 111.16 210.467 111.931 212.4 112.812C214.334 113.583 215.569 114.408 216.106 115.289C216.643 116.06 216.911 116.83 216.911 117.601C216.911 118.261 216.643 119.032 216.106 119.913C215.569 120.683 214.387 121.509 212.561 122.39C210.843 123.161 208.104 123.876 204.345 124.537C200.586 125.197 195.43 125.748 188.878 126.188C192.315 131.473 195.215 136.151 197.578 140.225C199.941 144.298 201.123 147.051 201.123 148.482C201.123 150.574 200.478 152.39 199.189 153.931C197.9 155.473 196.289 156.243 194.356 156.243C192.745 156.243 191.295 155.748 190.006 154.757C188.825 153.766 187.643 152.72 186.462 151.619Z" fill="#EF7300"/>
</g>
<defs>
<filter id="filter0_dd_3_79519" x="0.416667" y="0.8125" width="246.167" height="246.167" filterUnits="userSpaceOnUse" color-interpolation-filters="sRGB">
<feFlood flood-opacity="0" result="BackgroundImageFix"/>
<feColorMatrix in="SourceAlpha" type="matrix" values="0 0 0 0 0 0 0 0 0 0 0 0 0 0 0 0 0 0 127 0" result="hardAlpha"/>
<feMorphology radius="4.39583" operator="dilate" in="SourceAlpha" result="effect1_dropShadow_3_79519"/>
<feOffset dy="4.39583"/>
<feGaussianBlur stdDeviation="6.59375"/>
<feColorMatrix type="matrix" values="0 0 0 0 0 0 0 0 0 0 0 0 0 0 0 0 0 0 0.15 0"/>
<feBlend mode="normal" in2="BackgroundImageFix" result="effect1_dropShadow_3_79519"/>
<feColorMatrix in="SourceAlpha" type="matrix" values="0 0 0 0 0 0 0 0 0 0 0 0 0 0 0 0 0 0 127 0" result="hardAlpha"/>
<feOffset dy="2.19792"/>
<feGaussianBlur stdDeviation="2.19792"/>
<feColorMatrix type="matrix" values="0 0 0 0 0 0 0 0 0 0 0 0 0 0 0 0 0 0 0.3 0"/>
<feBlend mode="normal" in2="effect1_dropShadow_3_79519" result="effect2_dropShadow_3_79519"/>
<feBlend mode="normal" in="SourceGraphic" in2="effect2_dropShadow_3_79519" result="shape"/>
</filter>
</defs>
</svg>
